<mxfile host="app.diagrams.net" modified="2024-02-29T20:17:26.639Z" agent="Mozilla/5.0 (Windows NT 10.0; Win64; x64) AppleWebKit/537.36 (KHTML, like Gecko) Chrome/122.0.0.0 Safari/537.36" etag="4MH45pW-cz6ZpqQ3fqM5" version="23.1.8" type="github">
  <diagram name="PÃ¡gina-1" id="6LVc3QtLtj3fjm0SdB6f">
    <mxGraphModel dx="3407" dy="1060" grid="1" gridSize="10" guides="1" tooltips="1" connect="1" arrows="1" fold="1" page="1" pageScale="1" pageWidth="827" pageHeight="1169" math="0" shadow="0">
      <root>
        <mxCell id="0" />
        <mxCell id="1" parent="0" />
        <mxCell id="_3UpmQAz6hlJ8lTw8xpH-1" value="3.1.1" style="rounded=0;whiteSpace=wrap;html=1;" vertex="1" parent="1">
          <mxGeometry x="90" y="100" width="120" height="60" as="geometry" />
        </mxCell>
        <mxCell id="_3UpmQAz6hlJ8lTw8xpH-2" value="3.1.2" style="rounded=0;whiteSpace=wrap;html=1;" vertex="1" parent="1">
          <mxGeometry x="180" y="190" width="120" height="60" as="geometry" />
        </mxCell>
        <mxCell id="_3UpmQAz6hlJ8lTw8xpH-3" value="3.1.3" style="rounded=0;whiteSpace=wrap;html=1;" vertex="1" parent="1">
          <mxGeometry x="260" y="280" width="120" height="60" as="geometry" />
        </mxCell>
        <mxCell id="_3UpmQAz6hlJ8lTw8xpH-4" value="3.1.4" style="rounded=0;whiteSpace=wrap;html=1;" vertex="1" parent="1">
          <mxGeometry x="350" y="370" width="120" height="60" as="geometry" />
        </mxCell>
        <mxCell id="_3UpmQAz6hlJ8lTw8xpH-5" value="" style="endArrow=classic;html=1;rounded=0;" edge="1" parent="1">
          <mxGeometry width="50" height="50" relative="1" as="geometry">
            <mxPoint x="210" y="130" as="sourcePoint" />
            <mxPoint x="380" y="130" as="targetPoint" />
          </mxGeometry>
        </mxCell>
        <mxCell id="_3UpmQAz6hlJ8lTw8xpH-7" value="" style="endArrow=classic;html=1;rounded=0;entryX=0.68;entryY=0.04;entryDx=0;entryDy=0;entryPerimeter=0;" edge="1" parent="1" target="_3UpmQAz6hlJ8lTw8xpH-2">
          <mxGeometry width="50" height="50" relative="1" as="geometry">
            <mxPoint x="260" y="130" as="sourcePoint" />
            <mxPoint x="360" y="230" as="targetPoint" />
          </mxGeometry>
        </mxCell>
        <mxCell id="_3UpmQAz6hlJ8lTw8xpH-8" value="" style="endArrow=classic;html=1;rounded=0;" edge="1" parent="1">
          <mxGeometry width="50" height="50" relative="1" as="geometry">
            <mxPoint x="300" y="218" as="sourcePoint" />
            <mxPoint x="470" y="218" as="targetPoint" />
          </mxGeometry>
        </mxCell>
        <mxCell id="_3UpmQAz6hlJ8lTw8xpH-9" value="" style="endArrow=classic;html=1;rounded=0;entryX=0.68;entryY=0.04;entryDx=0;entryDy=0;entryPerimeter=0;" edge="1" parent="1">
          <mxGeometry width="50" height="50" relative="1" as="geometry">
            <mxPoint x="350" y="218" as="sourcePoint" />
            <mxPoint x="352" y="280" as="targetPoint" />
          </mxGeometry>
        </mxCell>
        <mxCell id="_3UpmQAz6hlJ8lTw8xpH-10" value="" style="endArrow=classic;html=1;rounded=0;" edge="1" parent="1">
          <mxGeometry width="50" height="50" relative="1" as="geometry">
            <mxPoint x="380" y="308" as="sourcePoint" />
            <mxPoint x="550" y="308" as="targetPoint" />
          </mxGeometry>
        </mxCell>
        <mxCell id="_3UpmQAz6hlJ8lTw8xpH-11" value="" style="endArrow=classic;html=1;rounded=0;entryX=0.68;entryY=0.04;entryDx=0;entryDy=0;entryPerimeter=0;" edge="1" parent="1">
          <mxGeometry width="50" height="50" relative="1" as="geometry">
            <mxPoint x="430" y="308" as="sourcePoint" />
            <mxPoint x="432" y="370" as="targetPoint" />
          </mxGeometry>
        </mxCell>
        <mxCell id="_3UpmQAz6hlJ8lTw8xpH-12" value="" style="endArrow=classic;html=1;rounded=0;" edge="1" parent="1">
          <mxGeometry width="50" height="50" relative="1" as="geometry">
            <mxPoint x="160" y="100" as="sourcePoint" />
            <mxPoint x="290" y="60" as="targetPoint" />
            <Array as="points">
              <mxPoint x="160" y="60" />
            </Array>
          </mxGeometry>
        </mxCell>
        <mxCell id="_3UpmQAz6hlJ8lTw8xpH-13" value="" style="endArrow=classic;html=1;rounded=0;" edge="1" parent="1">
          <mxGeometry width="50" height="50" relative="1" as="geometry">
            <mxPoint x="290" y="190" as="sourcePoint" />
            <mxPoint x="420" y="170" as="targetPoint" />
            <Array as="points">
              <mxPoint x="290" y="170" />
            </Array>
          </mxGeometry>
        </mxCell>
        <mxCell id="_3UpmQAz6hlJ8lTw8xpH-15" value="" style="endArrow=classic;html=1;rounded=0;" edge="1" parent="1">
          <mxGeometry width="50" height="50" relative="1" as="geometry">
            <mxPoint x="370" y="280" as="sourcePoint" />
            <mxPoint x="500" y="260" as="targetPoint" />
            <Array as="points">
              <mxPoint x="370" y="260" />
            </Array>
          </mxGeometry>
        </mxCell>
        <mxCell id="_3UpmQAz6hlJ8lTw8xpH-16" value="" style="endArrow=classic;html=1;rounded=0;" edge="1" parent="1">
          <mxGeometry width="50" height="50" relative="1" as="geometry">
            <mxPoint x="460" y="370" as="sourcePoint" />
            <mxPoint x="590" y="350" as="targetPoint" />
            <Array as="points">
              <mxPoint x="460" y="350" />
            </Array>
          </mxGeometry>
        </mxCell>
        <mxCell id="_3UpmQAz6hlJ8lTw8xpH-17" value="" style="endArrow=classic;html=1;rounded=0;entryX=0;entryY=0.5;entryDx=0;entryDy=0;" edge="1" parent="1" target="_3UpmQAz6hlJ8lTw8xpH-31">
          <mxGeometry width="50" height="50" relative="1" as="geometry">
            <mxPoint x="470" y="400" as="sourcePoint" />
            <mxPoint x="590" y="400" as="targetPoint" />
            <Array as="points">
              <mxPoint x="620" y="400" />
              <mxPoint x="620" y="50" />
            </Array>
          </mxGeometry>
        </mxCell>
        <mxCell id="_3UpmQAz6hlJ8lTw8xpH-18" value="DDAR" style="text;strokeColor=none;fillColor=none;html=1;fontSize=24;fontStyle=1;verticalAlign=middle;align=center;" vertex="1" parent="1">
          <mxGeometry x="170" y="20" width="100" height="40" as="geometry" />
        </mxCell>
        <mxCell id="_3UpmQAz6hlJ8lTw8xpH-19" value="AR" style="text;strokeColor=none;fillColor=none;html=1;fontSize=24;fontStyle=1;verticalAlign=middle;align=center;" vertex="1" parent="1">
          <mxGeometry x="210" y="100" width="100" height="40" as="geometry" />
        </mxCell>
        <mxCell id="_3UpmQAz6hlJ8lTw8xpH-20" value="DDDC" style="text;strokeColor=none;fillColor=none;html=1;fontSize=24;fontStyle=1;verticalAlign=middle;align=center;" vertex="1" parent="1">
          <mxGeometry x="310" y="140" width="100" height="40" as="geometry" />
        </mxCell>
        <mxCell id="_3UpmQAz6hlJ8lTw8xpH-21" value="DC" style="text;strokeColor=none;fillColor=none;html=1;fontSize=24;fontStyle=1;verticalAlign=middle;align=center;" vertex="1" parent="1">
          <mxGeometry x="310" y="190" width="100" height="40" as="geometry" />
        </mxCell>
        <mxCell id="_3UpmQAz6hlJ8lTw8xpH-22" value="DDDL" style="text;strokeColor=none;fillColor=none;html=1;fontSize=24;fontStyle=1;verticalAlign=middle;align=center;" vertex="1" parent="1">
          <mxGeometry x="390" y="230" width="100" height="40" as="geometry" />
        </mxCell>
        <mxCell id="_3UpmQAz6hlJ8lTw8xpH-23" value="DL" style="text;strokeColor=none;fillColor=none;html=1;fontSize=24;fontStyle=1;verticalAlign=middle;align=center;" vertex="1" parent="1">
          <mxGeometry x="390" y="280" width="100" height="40" as="geometry" />
        </mxCell>
        <mxCell id="_3UpmQAz6hlJ8lTw8xpH-24" value="DDBD" style="text;strokeColor=none;fillColor=none;html=1;fontSize=24;fontStyle=1;verticalAlign=middle;align=center;" vertex="1" parent="1">
          <mxGeometry x="470" y="320" width="100" height="40" as="geometry" />
        </mxCell>
        <mxCell id="_3UpmQAz6hlJ8lTw8xpH-25" value="BD" style="text;strokeColor=none;fillColor=none;html=1;fontSize=24;fontStyle=1;verticalAlign=middle;align=center;" vertex="1" parent="1">
          <mxGeometry x="450" y="400" width="100" height="40" as="geometry" />
        </mxCell>
        <mxCell id="_3UpmQAz6hlJ8lTw8xpH-26" value="PIC" style="text;html=1;align=center;verticalAlign=middle;resizable=0;points=[];autosize=1;strokeColor=none;fillColor=none;" vertex="1" parent="1">
          <mxGeometry x="-30" y="195" width="40" height="30" as="geometry" />
        </mxCell>
        <mxCell id="_3UpmQAz6hlJ8lTw8xpH-27" value="" style="endArrow=classic;html=1;rounded=0;entryX=0;entryY=0.25;entryDx=0;entryDy=0;" edge="1" parent="1" target="_3UpmQAz6hlJ8lTw8xpH-2">
          <mxGeometry width="50" height="50" relative="1" as="geometry">
            <mxPoint x="10" y="210" as="sourcePoint" />
            <mxPoint x="60" y="160" as="targetPoint" />
          </mxGeometry>
        </mxCell>
        <mxCell id="_3UpmQAz6hlJ8lTw8xpH-28" value="" style="endArrow=classic;html=1;rounded=0;entryX=0;entryY=0.5;entryDx=0;entryDy=0;" edge="1" parent="1" target="_3UpmQAz6hlJ8lTw8xpH-1">
          <mxGeometry width="50" height="50" relative="1" as="geometry">
            <mxPoint x="10" y="210" as="sourcePoint" />
            <mxPoint x="60" y="160" as="targetPoint" />
            <Array as="points">
              <mxPoint x="10" y="130" />
            </Array>
          </mxGeometry>
        </mxCell>
        <mxCell id="_3UpmQAz6hlJ8lTw8xpH-29" value="" style="endArrow=classic;html=1;rounded=0;entryX=0;entryY=0.5;entryDx=0;entryDy=0;" edge="1" parent="1" target="_3UpmQAz6hlJ8lTw8xpH-3">
          <mxGeometry width="50" height="50" relative="1" as="geometry">
            <mxPoint x="10" y="210" as="sourcePoint" />
            <mxPoint x="60" y="160" as="targetPoint" />
            <Array as="points">
              <mxPoint x="10" y="310" />
            </Array>
          </mxGeometry>
        </mxCell>
        <mxCell id="_3UpmQAz6hlJ8lTw8xpH-30" value="" style="endArrow=classic;html=1;rounded=0;entryX=0;entryY=0.5;entryDx=0;entryDy=0;" edge="1" parent="1" target="_3UpmQAz6hlJ8lTw8xpH-4">
          <mxGeometry width="50" height="50" relative="1" as="geometry">
            <mxPoint x="10" y="210" as="sourcePoint" />
            <mxPoint x="60" y="160" as="targetPoint" />
            <Array as="points">
              <mxPoint x="10" y="400" />
            </Array>
          </mxGeometry>
        </mxCell>
        <mxCell id="_3UpmQAz6hlJ8lTw8xpH-31" value="3.2.1.1" style="rounded=0;whiteSpace=wrap;html=1;" vertex="1" parent="1">
          <mxGeometry x="660" y="20" width="120" height="60" as="geometry" />
        </mxCell>
        <mxCell id="_3UpmQAz6hlJ8lTw8xpH-32" value="3.2.1.2" style="rounded=0;whiteSpace=wrap;html=1;" vertex="1" parent="1">
          <mxGeometry x="660" y="100" width="120" height="60" as="geometry" />
        </mxCell>
        <mxCell id="_3UpmQAz6hlJ8lTw8xpH-33" value="3.2.1.3" style="rounded=0;whiteSpace=wrap;html=1;" vertex="1" parent="1">
          <mxGeometry x="660" y="180" width="120" height="60" as="geometry" />
        </mxCell>
        <mxCell id="_3UpmQAz6hlJ8lTw8xpH-34" value="3.2.2.1" style="rounded=0;whiteSpace=wrap;html=1;" vertex="1" parent="1">
          <mxGeometry x="930" y="20" width="120" height="60" as="geometry" />
        </mxCell>
        <mxCell id="_3UpmQAz6hlJ8lTw8xpH-59" style="edgeStyle=orthogonalEdgeStyle;rounded=0;orthogonalLoop=1;jettySize=auto;html=1;exitX=1;exitY=0.5;exitDx=0;exitDy=0;entryX=0;entryY=0.25;entryDx=0;entryDy=0;" edge="1" parent="1" source="_3UpmQAz6hlJ8lTw8xpH-35" target="_3UpmQAz6hlJ8lTw8xpH-37">
          <mxGeometry relative="1" as="geometry" />
        </mxCell>
        <mxCell id="_3UpmQAz6hlJ8lTw8xpH-35" value="3.2.2.2" style="rounded=0;whiteSpace=wrap;html=1;" vertex="1" parent="1">
          <mxGeometry x="930" y="100" width="120" height="60" as="geometry" />
        </mxCell>
        <mxCell id="_3UpmQAz6hlJ8lTw8xpH-36" value="3.2.3.1" style="rounded=0;whiteSpace=wrap;html=1;" vertex="1" parent="1">
          <mxGeometry x="1170" y="20" width="120" height="60" as="geometry" />
        </mxCell>
        <mxCell id="_3UpmQAz6hlJ8lTw8xpH-63" style="edgeStyle=orthogonalEdgeStyle;rounded=0;orthogonalLoop=1;jettySize=auto;html=1;exitX=1;exitY=0.5;exitDx=0;exitDy=0;entryX=0;entryY=0.75;entryDx=0;entryDy=0;" edge="1" parent="1" source="_3UpmQAz6hlJ8lTw8xpH-37" target="_3UpmQAz6hlJ8lTw8xpH-38">
          <mxGeometry relative="1" as="geometry" />
        </mxCell>
        <mxCell id="_3UpmQAz6hlJ8lTw8xpH-37" value="3.2.3.2" style="rounded=0;whiteSpace=wrap;html=1;" vertex="1" parent="1">
          <mxGeometry x="1170" y="110" width="120" height="60" as="geometry" />
        </mxCell>
        <mxCell id="_3UpmQAz6hlJ8lTw8xpH-64" style="edgeStyle=orthogonalEdgeStyle;rounded=0;orthogonalLoop=1;jettySize=auto;html=1;exitX=1;exitY=0.5;exitDx=0;exitDy=0;entryX=0;entryY=0.5;entryDx=0;entryDy=0;" edge="1" parent="1" source="_3UpmQAz6hlJ8lTw8xpH-38" target="_3UpmQAz6hlJ8lTw8xpH-39">
          <mxGeometry relative="1" as="geometry" />
        </mxCell>
        <mxCell id="_3UpmQAz6hlJ8lTw8xpH-38" value="3.2.4.1" style="rounded=0;whiteSpace=wrap;html=1;" vertex="1" parent="1">
          <mxGeometry x="1360" y="20" width="120" height="60" as="geometry" />
        </mxCell>
        <mxCell id="_3UpmQAz6hlJ8lTw8xpH-39" value="3.2.5.1" style="rounded=0;whiteSpace=wrap;html=1;" vertex="1" parent="1">
          <mxGeometry x="1534" y="20" width="120" height="60" as="geometry" />
        </mxCell>
        <mxCell id="_3UpmQAz6hlJ8lTw8xpH-40" value="3.2.5.2" style="rounded=0;whiteSpace=wrap;html=1;" vertex="1" parent="1">
          <mxGeometry x="1534" y="110" width="120" height="60" as="geometry" />
        </mxCell>
        <mxCell id="_3UpmQAz6hlJ8lTw8xpH-41" value="" style="endArrow=classic;html=1;rounded=0;entryX=0;entryY=0.25;entryDx=0;entryDy=0;" edge="1" parent="1" target="_3UpmQAz6hlJ8lTw8xpH-31">
          <mxGeometry width="50" height="50" relative="1" as="geometry">
            <mxPoint x="10" y="400" as="sourcePoint" />
            <mxPoint x="220" y="560" as="targetPoint" />
            <Array as="points">
              <mxPoint x="10" y="480" />
              <mxPoint x="580" y="480" />
              <mxPoint x="580" y="30" />
            </Array>
          </mxGeometry>
        </mxCell>
        <mxCell id="_3UpmQAz6hlJ8lTw8xpH-44" value="" style="endArrow=classic;html=1;rounded=0;entryX=0;entryY=0.5;entryDx=0;entryDy=0;" edge="1" parent="1" target="_3UpmQAz6hlJ8lTw8xpH-32">
          <mxGeometry width="50" height="50" relative="1" as="geometry">
            <mxPoint x="620" y="130" as="sourcePoint" />
            <mxPoint x="590" y="270" as="targetPoint" />
          </mxGeometry>
        </mxCell>
        <mxCell id="_3UpmQAz6hlJ8lTw8xpH-45" value="" style="endArrow=classic;html=1;rounded=0;entryX=0;entryY=0.75;entryDx=0;entryDy=0;" edge="1" parent="1" target="_3UpmQAz6hlJ8lTw8xpH-32">
          <mxGeometry width="50" height="50" relative="1" as="geometry">
            <mxPoint x="580" y="150" as="sourcePoint" />
            <mxPoint x="590" y="270" as="targetPoint" />
          </mxGeometry>
        </mxCell>
        <mxCell id="_3UpmQAz6hlJ8lTw8xpH-46" value="" style="endArrow=classic;html=1;rounded=0;entryX=0;entryY=0.5;entryDx=0;entryDy=0;" edge="1" parent="1" target="_3UpmQAz6hlJ8lTw8xpH-33">
          <mxGeometry width="50" height="50" relative="1" as="geometry">
            <mxPoint x="580" y="210" as="sourcePoint" />
            <mxPoint x="590" y="270" as="targetPoint" />
          </mxGeometry>
        </mxCell>
        <mxCell id="_3UpmQAz6hlJ8lTw8xpH-47" value="" style="endArrow=classic;html=1;rounded=0;entryX=0;entryY=0.75;entryDx=0;entryDy=0;" edge="1" parent="1" target="_3UpmQAz6hlJ8lTw8xpH-33">
          <mxGeometry width="50" height="50" relative="1" as="geometry">
            <mxPoint x="580" y="230" as="sourcePoint" />
            <mxPoint x="590" y="270" as="targetPoint" />
          </mxGeometry>
        </mxCell>
        <mxCell id="_3UpmQAz6hlJ8lTw8xpH-48" value="" style="endArrow=classic;html=1;rounded=0;exitX=0.992;exitY=0.176;exitDx=0;exitDy=0;entryX=0.006;entryY=0.176;entryDx=0;entryDy=0;exitPerimeter=0;entryPerimeter=0;" edge="1" parent="1" source="_3UpmQAz6hlJ8lTw8xpH-31" target="_3UpmQAz6hlJ8lTw8xpH-34">
          <mxGeometry width="50" height="50" relative="1" as="geometry">
            <mxPoint x="660" y="270" as="sourcePoint" />
            <mxPoint x="710" y="220" as="targetPoint" />
          </mxGeometry>
        </mxCell>
        <mxCell id="_3UpmQAz6hlJ8lTw8xpH-49" value="" style="endArrow=classic;html=1;rounded=0;entryX=0;entryY=0.25;entryDx=0;entryDy=0;" edge="1" parent="1" target="_3UpmQAz6hlJ8lTw8xpH-35">
          <mxGeometry width="50" height="50" relative="1" as="geometry">
            <mxPoint x="900" y="30" as="sourcePoint" />
            <mxPoint x="710" y="220" as="targetPoint" />
            <Array as="points">
              <mxPoint x="900" y="110" />
            </Array>
          </mxGeometry>
        </mxCell>
        <mxCell id="_3UpmQAz6hlJ8lTw8xpH-54" value="" style="endArrow=classic;html=1;rounded=0;exitX=1;exitY=0.5;exitDx=0;exitDy=0;entryX=0;entryY=0.5;entryDx=0;entryDy=0;" edge="1" parent="1" source="_3UpmQAz6hlJ8lTw8xpH-32" target="_3UpmQAz6hlJ8lTw8xpH-35">
          <mxGeometry width="50" height="50" relative="1" as="geometry">
            <mxPoint x="800" y="160" as="sourcePoint" />
            <mxPoint x="850" y="110" as="targetPoint" />
          </mxGeometry>
        </mxCell>
        <mxCell id="_3UpmQAz6hlJ8lTw8xpH-55" value="" style="endArrow=classic;html=1;rounded=0;entryX=0;entryY=0.5;entryDx=0;entryDy=0;" edge="1" parent="1" target="_3UpmQAz6hlJ8lTw8xpH-34">
          <mxGeometry width="50" height="50" relative="1" as="geometry">
            <mxPoint x="880" y="130" as="sourcePoint" />
            <mxPoint x="860" y="50" as="targetPoint" />
            <Array as="points">
              <mxPoint x="880" y="50" />
            </Array>
          </mxGeometry>
        </mxCell>
        <mxCell id="_3UpmQAz6hlJ8lTw8xpH-56" value="" style="endArrow=classic;html=1;rounded=0;exitX=1;exitY=0.5;exitDx=0;exitDy=0;entryX=0;entryY=0.75;entryDx=0;entryDy=0;" edge="1" parent="1" source="_3UpmQAz6hlJ8lTw8xpH-33" target="_3UpmQAz6hlJ8lTw8xpH-35">
          <mxGeometry width="50" height="50" relative="1" as="geometry">
            <mxPoint x="800" y="160" as="sourcePoint" />
            <mxPoint x="850" y="110" as="targetPoint" />
            <Array as="points">
              <mxPoint x="860" y="210" />
              <mxPoint x="860" y="150" />
            </Array>
          </mxGeometry>
        </mxCell>
        <mxCell id="_3UpmQAz6hlJ8lTw8xpH-57" value="" style="endArrow=classic;html=1;rounded=0;entryX=-0.013;entryY=0.824;entryDx=0;entryDy=0;entryPerimeter=0;" edge="1" parent="1" target="_3UpmQAz6hlJ8lTw8xpH-34">
          <mxGeometry width="50" height="50" relative="1" as="geometry">
            <mxPoint x="860" y="150" as="sourcePoint" />
            <mxPoint x="850" y="110" as="targetPoint" />
            <Array as="points">
              <mxPoint x="860" y="70" />
            </Array>
          </mxGeometry>
        </mxCell>
        <mxCell id="_3UpmQAz6hlJ8lTw8xpH-58" value="" style="endArrow=classic;html=1;rounded=0;entryX=0;entryY=0.5;entryDx=0;entryDy=0;exitX=1;exitY=0.5;exitDx=0;exitDy=0;" edge="1" parent="1" source="_3UpmQAz6hlJ8lTw8xpH-34" target="_3UpmQAz6hlJ8lTw8xpH-36">
          <mxGeometry width="50" height="50" relative="1" as="geometry">
            <mxPoint x="980" y="-30" as="sourcePoint" />
            <mxPoint x="1030" y="-80" as="targetPoint" />
          </mxGeometry>
        </mxCell>
        <mxCell id="_3UpmQAz6hlJ8lTw8xpH-60" value="" style="endArrow=classic;html=1;rounded=0;entryX=-0.016;entryY=0.671;entryDx=0;entryDy=0;entryPerimeter=0;" edge="1" parent="1" target="_3UpmQAz6hlJ8lTw8xpH-36">
          <mxGeometry width="50" height="50" relative="1" as="geometry">
            <mxPoint x="1110" y="130" as="sourcePoint" />
            <mxPoint x="1160" y="80" as="targetPoint" />
            <Array as="points">
              <mxPoint x="1110" y="60" />
            </Array>
          </mxGeometry>
        </mxCell>
        <mxCell id="_3UpmQAz6hlJ8lTw8xpH-61" value="" style="endArrow=classic;html=1;rounded=0;entryX=0;entryY=0.75;entryDx=0;entryDy=0;" edge="1" parent="1" target="_3UpmQAz6hlJ8lTw8xpH-37">
          <mxGeometry width="50" height="50" relative="1" as="geometry">
            <mxPoint x="1140" y="50" as="sourcePoint" />
            <mxPoint x="1120" y="90" as="targetPoint" />
            <Array as="points">
              <mxPoint x="1140" y="150" />
            </Array>
          </mxGeometry>
        </mxCell>
        <mxCell id="_3UpmQAz6hlJ8lTw8xpH-62" value="" style="endArrow=classic;html=1;rounded=0;exitX=1;exitY=0.5;exitDx=0;exitDy=0;entryX=0;entryY=0.5;entryDx=0;entryDy=0;" edge="1" parent="1" source="_3UpmQAz6hlJ8lTw8xpH-36" target="_3UpmQAz6hlJ8lTw8xpH-38">
          <mxGeometry width="50" height="50" relative="1" as="geometry">
            <mxPoint x="1420" y="-100" as="sourcePoint" />
            <mxPoint x="1470" y="-150" as="targetPoint" />
          </mxGeometry>
        </mxCell>
        <mxCell id="_3UpmQAz6hlJ8lTw8xpH-65" style="edgeStyle=orthogonalEdgeStyle;rounded=0;orthogonalLoop=1;jettySize=auto;html=1;exitX=1;exitY=0.75;exitDx=0;exitDy=0;entryX=0.008;entryY=0.603;entryDx=0;entryDy=0;entryPerimeter=0;" edge="1" parent="1" source="_3UpmQAz6hlJ8lTw8xpH-38" target="_3UpmQAz6hlJ8lTw8xpH-40">
          <mxGeometry relative="1" as="geometry" />
        </mxCell>
        <mxCell id="_3UpmQAz6hlJ8lTw8xpH-66" value="3.3.1.1" style="rounded=0;whiteSpace=wrap;html=1;" vertex="1" parent="1">
          <mxGeometry x="740" y="340" width="120" height="60" as="geometry" />
        </mxCell>
        <mxCell id="_3UpmQAz6hlJ8lTw8xpH-67" value="3.3.1.2" style="rounded=0;whiteSpace=wrap;html=1;" vertex="1" parent="1">
          <mxGeometry x="740" y="420" width="120" height="60" as="geometry" />
        </mxCell>
        <mxCell id="_3UpmQAz6hlJ8lTw8xpH-68" value="3.3.1.3" style="rounded=0;whiteSpace=wrap;html=1;" vertex="1" parent="1">
          <mxGeometry x="740" y="500" width="120" height="60" as="geometry" />
        </mxCell>
        <mxCell id="_3UpmQAz6hlJ8lTw8xpH-69" value="3.3.2.1" style="rounded=0;whiteSpace=wrap;html=1;" vertex="1" parent="1">
          <mxGeometry x="1010" y="340" width="120" height="60" as="geometry" />
        </mxCell>
        <mxCell id="_3UpmQAz6hlJ8lTw8xpH-70" style="edgeStyle=orthogonalEdgeStyle;rounded=0;orthogonalLoop=1;jettySize=auto;html=1;exitX=1;exitY=0.5;exitDx=0;exitDy=0;entryX=0;entryY=0.25;entryDx=0;entryDy=0;" edge="1" parent="1" source="_3UpmQAz6hlJ8lTw8xpH-71" target="_3UpmQAz6hlJ8lTw8xpH-74">
          <mxGeometry relative="1" as="geometry" />
        </mxCell>
        <mxCell id="_3UpmQAz6hlJ8lTw8xpH-71" value="3.3.2.2" style="rounded=0;whiteSpace=wrap;html=1;" vertex="1" parent="1">
          <mxGeometry x="1010" y="420" width="120" height="60" as="geometry" />
        </mxCell>
        <mxCell id="_3UpmQAz6hlJ8lTw8xpH-72" value="3.3.3.1" style="rounded=0;whiteSpace=wrap;html=1;" vertex="1" parent="1">
          <mxGeometry x="1250" y="340" width="120" height="60" as="geometry" />
        </mxCell>
        <mxCell id="_3UpmQAz6hlJ8lTw8xpH-73" style="edgeStyle=orthogonalEdgeStyle;rounded=0;orthogonalLoop=1;jettySize=auto;html=1;exitX=1;exitY=0.5;exitDx=0;exitDy=0;entryX=0;entryY=0.75;entryDx=0;entryDy=0;" edge="1" parent="1" source="_3UpmQAz6hlJ8lTw8xpH-74" target="_3UpmQAz6hlJ8lTw8xpH-76">
          <mxGeometry relative="1" as="geometry" />
        </mxCell>
        <mxCell id="_3UpmQAz6hlJ8lTw8xpH-74" value="3.3.3.2" style="rounded=0;whiteSpace=wrap;html=1;" vertex="1" parent="1">
          <mxGeometry x="1250" y="430" width="120" height="60" as="geometry" />
        </mxCell>
        <mxCell id="_3UpmQAz6hlJ8lTw8xpH-75" style="edgeStyle=orthogonalEdgeStyle;rounded=0;orthogonalLoop=1;jettySize=auto;html=1;exitX=1;exitY=0.5;exitDx=0;exitDy=0;entryX=0;entryY=0.5;entryDx=0;entryDy=0;" edge="1" parent="1" source="_3UpmQAz6hlJ8lTw8xpH-76" target="_3UpmQAz6hlJ8lTw8xpH-77">
          <mxGeometry relative="1" as="geometry" />
        </mxCell>
        <mxCell id="_3UpmQAz6hlJ8lTw8xpH-76" value="3.3.4.1" style="rounded=0;whiteSpace=wrap;html=1;" vertex="1" parent="1">
          <mxGeometry x="1440" y="340" width="120" height="60" as="geometry" />
        </mxCell>
        <mxCell id="_3UpmQAz6hlJ8lTw8xpH-77" value="3.3.5.1" style="rounded=0;whiteSpace=wrap;html=1;" vertex="1" parent="1">
          <mxGeometry x="1614" y="340" width="120" height="60" as="geometry" />
        </mxCell>
        <mxCell id="_3UpmQAz6hlJ8lTw8xpH-78" value="3.3.5.2" style="rounded=0;whiteSpace=wrap;html=1;" vertex="1" parent="1">
          <mxGeometry x="1614" y="430" width="120" height="60" as="geometry" />
        </mxCell>
        <mxCell id="_3UpmQAz6hlJ8lTw8xpH-83" value="" style="endArrow=classic;html=1;rounded=0;exitX=0.992;exitY=0.176;exitDx=0;exitDy=0;entryX=0.006;entryY=0.176;entryDx=0;entryDy=0;exitPerimeter=0;entryPerimeter=0;" edge="1" parent="1" source="_3UpmQAz6hlJ8lTw8xpH-66" target="_3UpmQAz6hlJ8lTw8xpH-69">
          <mxGeometry width="50" height="50" relative="1" as="geometry">
            <mxPoint x="740" y="590" as="sourcePoint" />
            <mxPoint x="790" y="540" as="targetPoint" />
          </mxGeometry>
        </mxCell>
        <mxCell id="_3UpmQAz6hlJ8lTw8xpH-84" value="" style="endArrow=classic;html=1;rounded=0;entryX=0;entryY=0.25;entryDx=0;entryDy=0;" edge="1" parent="1" target="_3UpmQAz6hlJ8lTw8xpH-71">
          <mxGeometry width="50" height="50" relative="1" as="geometry">
            <mxPoint x="980" y="350" as="sourcePoint" />
            <mxPoint x="790" y="540" as="targetPoint" />
            <Array as="points">
              <mxPoint x="980" y="430" />
            </Array>
          </mxGeometry>
        </mxCell>
        <mxCell id="_3UpmQAz6hlJ8lTw8xpH-85" value="" style="endArrow=classic;html=1;rounded=0;exitX=1;exitY=0.5;exitDx=0;exitDy=0;entryX=0;entryY=0.5;entryDx=0;entryDy=0;" edge="1" parent="1" source="_3UpmQAz6hlJ8lTw8xpH-67" target="_3UpmQAz6hlJ8lTw8xpH-71">
          <mxGeometry width="50" height="50" relative="1" as="geometry">
            <mxPoint x="880" y="480" as="sourcePoint" />
            <mxPoint x="930" y="430" as="targetPoint" />
          </mxGeometry>
        </mxCell>
        <mxCell id="_3UpmQAz6hlJ8lTw8xpH-86" value="" style="endArrow=classic;html=1;rounded=0;entryX=0;entryY=0.5;entryDx=0;entryDy=0;" edge="1" parent="1" target="_3UpmQAz6hlJ8lTw8xpH-69">
          <mxGeometry width="50" height="50" relative="1" as="geometry">
            <mxPoint x="960" y="450" as="sourcePoint" />
            <mxPoint x="940" y="370" as="targetPoint" />
            <Array as="points">
              <mxPoint x="960" y="370" />
            </Array>
          </mxGeometry>
        </mxCell>
        <mxCell id="_3UpmQAz6hlJ8lTw8xpH-87" value="" style="endArrow=classic;html=1;rounded=0;exitX=1;exitY=0.5;exitDx=0;exitDy=0;entryX=0;entryY=0.75;entryDx=0;entryDy=0;" edge="1" parent="1" source="_3UpmQAz6hlJ8lTw8xpH-68" target="_3UpmQAz6hlJ8lTw8xpH-71">
          <mxGeometry width="50" height="50" relative="1" as="geometry">
            <mxPoint x="880" y="480" as="sourcePoint" />
            <mxPoint x="930" y="430" as="targetPoint" />
            <Array as="points">
              <mxPoint x="940" y="530" />
              <mxPoint x="940" y="470" />
            </Array>
          </mxGeometry>
        </mxCell>
        <mxCell id="_3UpmQAz6hlJ8lTw8xpH-88" value="" style="endArrow=classic;html=1;rounded=0;entryX=-0.013;entryY=0.824;entryDx=0;entryDy=0;entryPerimeter=0;" edge="1" parent="1" target="_3UpmQAz6hlJ8lTw8xpH-69">
          <mxGeometry width="50" height="50" relative="1" as="geometry">
            <mxPoint x="940" y="470" as="sourcePoint" />
            <mxPoint x="930" y="430" as="targetPoint" />
            <Array as="points">
              <mxPoint x="940" y="390" />
            </Array>
          </mxGeometry>
        </mxCell>
        <mxCell id="_3UpmQAz6hlJ8lTw8xpH-89" value="" style="endArrow=classic;html=1;rounded=0;entryX=0;entryY=0.5;entryDx=0;entryDy=0;exitX=1;exitY=0.5;exitDx=0;exitDy=0;" edge="1" parent="1" source="_3UpmQAz6hlJ8lTw8xpH-69" target="_3UpmQAz6hlJ8lTw8xpH-72">
          <mxGeometry width="50" height="50" relative="1" as="geometry">
            <mxPoint x="1060" y="290" as="sourcePoint" />
            <mxPoint x="1110" y="240" as="targetPoint" />
          </mxGeometry>
        </mxCell>
        <mxCell id="_3UpmQAz6hlJ8lTw8xpH-90" value="" style="endArrow=classic;html=1;rounded=0;entryX=-0.016;entryY=0.671;entryDx=0;entryDy=0;entryPerimeter=0;" edge="1" parent="1" target="_3UpmQAz6hlJ8lTw8xpH-72">
          <mxGeometry width="50" height="50" relative="1" as="geometry">
            <mxPoint x="1190" y="450" as="sourcePoint" />
            <mxPoint x="1240" y="400" as="targetPoint" />
            <Array as="points">
              <mxPoint x="1190" y="380" />
            </Array>
          </mxGeometry>
        </mxCell>
        <mxCell id="_3UpmQAz6hlJ8lTw8xpH-91" value="" style="endArrow=classic;html=1;rounded=0;entryX=0;entryY=0.75;entryDx=0;entryDy=0;" edge="1" parent="1" target="_3UpmQAz6hlJ8lTw8xpH-74">
          <mxGeometry width="50" height="50" relative="1" as="geometry">
            <mxPoint x="1220" y="370" as="sourcePoint" />
            <mxPoint x="1200" y="410" as="targetPoint" />
            <Array as="points">
              <mxPoint x="1220" y="470" />
            </Array>
          </mxGeometry>
        </mxCell>
        <mxCell id="_3UpmQAz6hlJ8lTw8xpH-92" value="" style="endArrow=classic;html=1;rounded=0;exitX=1;exitY=0.5;exitDx=0;exitDy=0;entryX=0;entryY=0.5;entryDx=0;entryDy=0;" edge="1" parent="1" source="_3UpmQAz6hlJ8lTw8xpH-72" target="_3UpmQAz6hlJ8lTw8xpH-76">
          <mxGeometry width="50" height="50" relative="1" as="geometry">
            <mxPoint x="1500" y="220" as="sourcePoint" />
            <mxPoint x="1550" y="170" as="targetPoint" />
          </mxGeometry>
        </mxCell>
        <mxCell id="_3UpmQAz6hlJ8lTw8xpH-93" style="edgeStyle=orthogonalEdgeStyle;rounded=0;orthogonalLoop=1;jettySize=auto;html=1;exitX=1;exitY=0.75;exitDx=0;exitDy=0;entryX=0.008;entryY=0.603;entryDx=0;entryDy=0;entryPerimeter=0;" edge="1" parent="1" source="_3UpmQAz6hlJ8lTw8xpH-76" target="_3UpmQAz6hlJ8lTw8xpH-78">
          <mxGeometry relative="1" as="geometry" />
        </mxCell>
        <mxCell id="_3UpmQAz6hlJ8lTw8xpH-94" value="" style="endArrow=classic;html=1;rounded=0;entryX=0;entryY=0.75;entryDx=0;entryDy=0;" edge="1" parent="1" target="_3UpmQAz6hlJ8lTw8xpH-66">
          <mxGeometry width="50" height="50" relative="1" as="geometry">
            <mxPoint x="620" y="400" as="sourcePoint" />
            <mxPoint x="1160" y="420" as="targetPoint" />
          </mxGeometry>
        </mxCell>
        <mxCell id="_3UpmQAz6hlJ8lTw8xpH-95" value="" style="endArrow=classic;html=1;rounded=0;entryX=0;entryY=0.25;entryDx=0;entryDy=0;" edge="1" parent="1" target="_3UpmQAz6hlJ8lTw8xpH-67">
          <mxGeometry width="50" height="50" relative="1" as="geometry">
            <mxPoint x="690" y="390" as="sourcePoint" />
            <mxPoint x="960" y="400" as="targetPoint" />
            <Array as="points">
              <mxPoint x="690" y="440" />
            </Array>
          </mxGeometry>
        </mxCell>
        <mxCell id="_3UpmQAz6hlJ8lTw8xpH-96" value="" style="endArrow=classic;html=1;rounded=0;entryX=0;entryY=0.25;entryDx=0;entryDy=0;" edge="1" parent="1" target="_3UpmQAz6hlJ8lTw8xpH-68">
          <mxGeometry width="50" height="50" relative="1" as="geometry">
            <mxPoint x="690" y="440" as="sourcePoint" />
            <mxPoint x="960" y="400" as="targetPoint" />
            <Array as="points">
              <mxPoint x="690" y="515" />
            </Array>
          </mxGeometry>
        </mxCell>
        <mxCell id="_3UpmQAz6hlJ8lTw8xpH-97" value="" style="endArrow=classic;html=1;rounded=0;entryX=0;entryY=0.5;entryDx=0;entryDy=0;" edge="1" parent="1" target="_3UpmQAz6hlJ8lTw8xpH-66">
          <mxGeometry width="50" height="50" relative="1" as="geometry">
            <mxPoint x="580" y="370" as="sourcePoint" />
            <mxPoint x="960" y="400" as="targetPoint" />
          </mxGeometry>
        </mxCell>
        <mxCell id="_3UpmQAz6hlJ8lTw8xpH-98" value="" style="endArrow=classic;html=1;rounded=0;entryX=0;entryY=0.75;entryDx=0;entryDy=0;" edge="1" parent="1" target="_3UpmQAz6hlJ8lTw8xpH-67">
          <mxGeometry width="50" height="50" relative="1" as="geometry">
            <mxPoint x="660" y="370" as="sourcePoint" />
            <mxPoint x="960" y="400" as="targetPoint" />
            <Array as="points">
              <mxPoint x="660" y="465" />
            </Array>
          </mxGeometry>
        </mxCell>
        <mxCell id="_3UpmQAz6hlJ8lTw8xpH-99" value="" style="endArrow=classic;html=1;rounded=0;entryX=0;entryY=0.75;entryDx=0;entryDy=0;" edge="1" parent="1" target="_3UpmQAz6hlJ8lTw8xpH-68">
          <mxGeometry width="50" height="50" relative="1" as="geometry">
            <mxPoint x="660" y="460" as="sourcePoint" />
            <mxPoint x="960" y="400" as="targetPoint" />
            <Array as="points">
              <mxPoint x="660" y="545" />
            </Array>
          </mxGeometry>
        </mxCell>
        <mxCell id="_3UpmQAz6hlJ8lTw8xpH-100" value="" style="endArrow=classic;html=1;rounded=0;exitX=0.5;exitY=1;exitDx=0;exitDy=0;entryX=0.5;entryY=0;entryDx=0;entryDy=0;" edge="1" parent="1" source="_3UpmQAz6hlJ8lTw8xpH-39" target="_3UpmQAz6hlJ8lTw8xpH-40">
          <mxGeometry width="50" height="50" relative="1" as="geometry">
            <mxPoint x="1610" y="90" as="sourcePoint" />
            <mxPoint x="1660" y="40" as="targetPoint" />
          </mxGeometry>
        </mxCell>
        <mxCell id="_3UpmQAz6hlJ8lTw8xpH-101" value="" style="endArrow=classic;html=1;rounded=0;exitX=0.5;exitY=1;exitDx=0;exitDy=0;entryX=0.5;entryY=0;entryDx=0;entryDy=0;" edge="1" parent="1" source="_3UpmQAz6hlJ8lTw8xpH-77" target="_3UpmQAz6hlJ8lTw8xpH-78">
          <mxGeometry width="50" height="50" relative="1" as="geometry">
            <mxPoint x="1610" y="430" as="sourcePoint" />
            <mxPoint x="1660" y="380" as="targetPoint" />
          </mxGeometry>
        </mxCell>
        <mxCell id="_3UpmQAz6hlJ8lTw8xpH-102" value="" style="endArrow=classic;html=1;rounded=0;exitX=1;exitY=0.5;exitDx=0;exitDy=0;entryX=0;entryY=0.25;entryDx=0;entryDy=0;" edge="1" parent="1" source="_3UpmQAz6hlJ8lTw8xpH-40" target="_3UpmQAz6hlJ8lTw8xpH-111">
          <mxGeometry width="50" height="50" relative="1" as="geometry">
            <mxPoint x="1610" y="260" as="sourcePoint" />
            <mxPoint x="1740" y="140" as="targetPoint" />
          </mxGeometry>
        </mxCell>
        <mxCell id="_3UpmQAz6hlJ8lTw8xpH-103" value="" style="endArrow=classic;html=1;rounded=0;exitX=1;exitY=0.5;exitDx=0;exitDy=0;entryX=0;entryY=0.75;entryDx=0;entryDy=0;" edge="1" parent="1" source="_3UpmQAz6hlJ8lTw8xpH-78" target="_3UpmQAz6hlJ8lTw8xpH-112">
          <mxGeometry width="50" height="50" relative="1" as="geometry">
            <mxPoint x="1610" y="510" as="sourcePoint" />
            <mxPoint x="1830" y="460" as="targetPoint" />
          </mxGeometry>
        </mxCell>
        <mxCell id="_3UpmQAz6hlJ8lTw8xpH-104" value="GE" style="text;html=1;align=center;verticalAlign=middle;resizable=0;points=[];autosize=1;strokeColor=none;fillColor=none;" vertex="1" parent="1">
          <mxGeometry x="1750" y="418" width="40" height="30" as="geometry" />
        </mxCell>
        <mxCell id="_3UpmQAz6hlJ8lTw8xpH-105" value="GP" style="text;html=1;align=center;verticalAlign=middle;resizable=0;points=[];autosize=1;strokeColor=none;fillColor=none;" vertex="1" parent="1">
          <mxGeometry x="1660" y="108" width="40" height="30" as="geometry" />
        </mxCell>
        <mxCell id="_3UpmQAz6hlJ8lTw8xpH-107" value="" style="endArrow=classic;html=1;rounded=0;exitX=0.5;exitY=1;exitDx=0;exitDy=0;" edge="1" parent="1" source="_3UpmQAz6hlJ8lTw8xpH-40">
          <mxGeometry width="50" height="50" relative="1" as="geometry">
            <mxPoint x="1610" y="260" as="sourcePoint" />
            <mxPoint x="1710" y="210" as="targetPoint" />
            <Array as="points">
              <mxPoint x="1594" y="210" />
            </Array>
          </mxGeometry>
        </mxCell>
        <mxCell id="_3UpmQAz6hlJ8lTw8xpH-108" value="" style="endArrow=classic;html=1;rounded=0;exitX=0.5;exitY=1;exitDx=0;exitDy=0;" edge="1" parent="1" source="_3UpmQAz6hlJ8lTw8xpH-78">
          <mxGeometry width="50" height="50" relative="1" as="geometry">
            <mxPoint x="1610" y="430" as="sourcePoint" />
            <mxPoint x="1750" y="540" as="targetPoint" />
            <Array as="points">
              <mxPoint x="1674" y="540" />
            </Array>
          </mxGeometry>
        </mxCell>
        <mxCell id="_3UpmQAz6hlJ8lTw8xpH-109" value="DDGE" style="text;html=1;align=center;verticalAlign=middle;resizable=0;points=[];autosize=1;strokeColor=none;fillColor=none;" vertex="1" parent="1">
          <mxGeometry x="1680" y="508" width="60" height="30" as="geometry" />
        </mxCell>
        <mxCell id="_3UpmQAz6hlJ8lTw8xpH-110" value="DDGP" style="text;html=1;align=center;verticalAlign=middle;resizable=0;points=[];autosize=1;strokeColor=none;fillColor=none;" vertex="1" parent="1">
          <mxGeometry x="1620" y="178" width="60" height="30" as="geometry" />
        </mxCell>
        <mxCell id="_3UpmQAz6hlJ8lTw8xpH-111" value="3.4.3" style="rounded=0;whiteSpace=wrap;html=1;" vertex="1" parent="1">
          <mxGeometry x="2130" y="120" width="120" height="60" as="geometry" />
        </mxCell>
        <mxCell id="_3UpmQAz6hlJ8lTw8xpH-112" value="3.4.2" style="rounded=0;whiteSpace=wrap;html=1;" vertex="1" parent="1">
          <mxGeometry x="2130" y="418" width="120" height="60" as="geometry" />
        </mxCell>
        <mxCell id="_3UpmQAz6hlJ8lTw8xpH-113" value="3.4.1" style="rounded=0;whiteSpace=wrap;html=1;" vertex="1" parent="1">
          <mxGeometry x="2130" y="260" width="120" height="60" as="geometry" />
        </mxCell>
        <mxCell id="_3UpmQAz6hlJ8lTw8xpH-114" value="" style="endArrow=classic;html=1;rounded=0;entryX=0;entryY=0.5;entryDx=0;entryDy=0;" edge="1" parent="1" target="_3UpmQAz6hlJ8lTw8xpH-113">
          <mxGeometry width="50" height="50" relative="1" as="geometry">
            <mxPoint x="620" y="280" as="sourcePoint" />
            <mxPoint x="1100" y="350" as="targetPoint" />
          </mxGeometry>
        </mxCell>
        <mxCell id="_3UpmQAz6hlJ8lTw8xpH-115" value="" style="endArrow=classic;html=1;rounded=0;exitX=0.5;exitY=1;exitDx=0;exitDy=0;entryX=0.5;entryY=0;entryDx=0;entryDy=0;" edge="1" parent="1" source="_3UpmQAz6hlJ8lTw8xpH-113" target="_3UpmQAz6hlJ8lTw8xpH-112">
          <mxGeometry width="50" height="50" relative="1" as="geometry">
            <mxPoint x="2090" y="400" as="sourcePoint" />
            <mxPoint x="2140" y="350" as="targetPoint" />
          </mxGeometry>
        </mxCell>
        <mxCell id="_3UpmQAz6hlJ8lTw8xpH-116" value="" style="endArrow=classic;html=1;rounded=0;exitX=1;exitY=0.5;exitDx=0;exitDy=0;" edge="1" parent="1" source="_3UpmQAz6hlJ8lTw8xpH-112" target="_3UpmQAz6hlJ8lTw8xpH-111">
          <mxGeometry width="50" height="50" relative="1" as="geometry">
            <mxPoint x="2090" y="400" as="sourcePoint" />
            <mxPoint x="2140" y="350" as="targetPoint" />
            <Array as="points">
              <mxPoint x="2280" y="450" />
              <mxPoint x="2280" y="220" />
              <mxPoint x="2190" y="220" />
            </Array>
          </mxGeometry>
        </mxCell>
        <mxCell id="_3UpmQAz6hlJ8lTw8xpH-117" value="" style="endArrow=classic;html=1;rounded=0;exitX=1;exitY=0.5;exitDx=0;exitDy=0;" edge="1" parent="1" source="_3UpmQAz6hlJ8lTw8xpH-111">
          <mxGeometry width="50" height="50" relative="1" as="geometry">
            <mxPoint x="2090" y="400" as="sourcePoint" />
            <mxPoint x="2400" y="150" as="targetPoint" />
          </mxGeometry>
        </mxCell>
        <mxCell id="_3UpmQAz6hlJ8lTw8xpH-118" value="SNI" style="text;html=1;align=center;verticalAlign=middle;resizable=0;points=[];autosize=1;strokeColor=none;fillColor=none;" vertex="1" parent="1">
          <mxGeometry x="2310" y="115" width="40" height="30" as="geometry" />
        </mxCell>
        <mxCell id="_3UpmQAz6hlJ8lTw8xpH-119" value="IBD" style="text;html=1;align=center;verticalAlign=middle;resizable=0;points=[];autosize=1;strokeColor=none;fillColor=none;" vertex="1" parent="1">
          <mxGeometry x="2190" y="348" width="40" height="30" as="geometry" />
        </mxCell>
        <mxCell id="_3UpmQAz6hlJ8lTw8xpH-120" value="IGE" style="text;html=1;align=center;verticalAlign=middle;resizable=0;points=[];autosize=1;strokeColor=none;fillColor=none;" vertex="1" parent="1">
          <mxGeometry x="2280" y="358" width="40" height="30" as="geometry" />
        </mxCell>
        <mxCell id="_3UpmQAz6hlJ8lTw8xpH-121" value="RS" style="text;html=1;align=center;verticalAlign=middle;resizable=0;points=[];autosize=1;strokeColor=none;fillColor=none;" vertex="1" parent="1">
          <mxGeometry x="800" y="8" width="40" height="30" as="geometry" />
        </mxCell>
        <mxCell id="_3UpmQAz6hlJ8lTw8xpH-122" value="AD" style="text;html=1;align=center;verticalAlign=middle;resizable=0;points=[];autosize=1;strokeColor=none;fillColor=none;" vertex="1" parent="1">
          <mxGeometry x="780" y="108" width="40" height="30" as="geometry" />
        </mxCell>
        <mxCell id="_3UpmQAz6hlJ8lTw8xpH-123" value="IR" style="text;html=1;align=center;verticalAlign=middle;resizable=0;points=[];autosize=1;strokeColor=none;fillColor=none;" vertex="1" parent="1">
          <mxGeometry x="790" y="178" width="40" height="30" as="geometry" />
        </mxCell>
        <mxCell id="_3UpmQAz6hlJ8lTw8xpH-124" value="ICU" style="text;html=1;align=center;verticalAlign=middle;resizable=0;points=[];autosize=1;strokeColor=none;fillColor=none;" vertex="1" parent="1">
          <mxGeometry x="1060" y="8" width="40" height="30" as="geometry" />
        </mxCell>
        <mxCell id="_3UpmQAz6hlJ8lTw8xpH-125" value="MPN" style="text;html=1;align=center;verticalAlign=middle;resizable=0;points=[];autosize=1;strokeColor=none;fillColor=none;" vertex="1" parent="1">
          <mxGeometry x="1045" y="88" width="50" height="30" as="geometry" />
        </mxCell>
        <mxCell id="_3UpmQAz6hlJ8lTw8xpH-126" value="DCE" style="text;html=1;align=center;verticalAlign=middle;resizable=0;points=[];autosize=1;strokeColor=none;fillColor=none;" vertex="1" parent="1">
          <mxGeometry x="1285" y="18" width="50" height="30" as="geometry" />
        </mxCell>
        <mxCell id="_3UpmQAz6hlJ8lTw8xpH-127" value="DER" style="text;html=1;align=center;verticalAlign=middle;resizable=0;points=[];autosize=1;strokeColor=none;fillColor=none;" vertex="1" parent="1">
          <mxGeometry x="1295" y="148" width="50" height="30" as="geometry" />
        </mxCell>
        <mxCell id="_3UpmQAz6hlJ8lTw8xpH-128" value="DFI" style="text;html=1;align=center;verticalAlign=middle;resizable=0;points=[];autosize=1;strokeColor=none;fillColor=none;" vertex="1" parent="1">
          <mxGeometry x="1480" y="18" width="40" height="30" as="geometry" />
        </mxCell>
        <mxCell id="_3UpmQAz6hlJ8lTw8xpH-129" value="IEEE" style="text;html=1;align=center;verticalAlign=middle;resizable=0;points=[];autosize=1;strokeColor=none;fillColor=none;" vertex="1" parent="1">
          <mxGeometry x="1455" y="98" width="50" height="30" as="geometry" />
        </mxCell>
        <mxCell id="_3UpmQAz6hlJ8lTw8xpH-130" value="DMF" style="text;html=1;align=center;verticalAlign=middle;resizable=0;points=[];autosize=1;strokeColor=none;fillColor=none;" vertex="1" parent="1">
          <mxGeometry x="1585" y="78" width="50" height="30" as="geometry" />
        </mxCell>
        <mxCell id="_3UpmQAz6hlJ8lTw8xpH-131" value="RS" style="text;html=1;align=center;verticalAlign=middle;resizable=0;points=[];autosize=1;strokeColor=none;fillColor=none;" vertex="1" parent="1">
          <mxGeometry x="870" y="318" width="40" height="30" as="geometry" />
        </mxCell>
        <mxCell id="_3UpmQAz6hlJ8lTw8xpH-132" value="AD" style="text;html=1;align=center;verticalAlign=middle;resizable=0;points=[];autosize=1;strokeColor=none;fillColor=none;" vertex="1" parent="1">
          <mxGeometry x="860" y="408" width="40" height="30" as="geometry" />
        </mxCell>
        <mxCell id="_3UpmQAz6hlJ8lTw8xpH-134" value="ICU" style="text;html=1;align=center;verticalAlign=middle;resizable=0;points=[];autosize=1;strokeColor=none;fillColor=none;" vertex="1" parent="1">
          <mxGeometry x="1140" y="338" width="40" height="30" as="geometry" />
        </mxCell>
        <mxCell id="_3UpmQAz6hlJ8lTw8xpH-135" value="MPN" style="text;html=1;align=center;verticalAlign=middle;resizable=0;points=[];autosize=1;strokeColor=none;fillColor=none;" vertex="1" parent="1">
          <mxGeometry x="1125" y="418" width="50" height="30" as="geometry" />
        </mxCell>
        <mxCell id="_3UpmQAz6hlJ8lTw8xpH-136" value="DCE" style="text;html=1;align=center;verticalAlign=middle;resizable=0;points=[];autosize=1;strokeColor=none;fillColor=none;" vertex="1" parent="1">
          <mxGeometry x="1375" y="328" width="50" height="30" as="geometry" />
        </mxCell>
        <mxCell id="_3UpmQAz6hlJ8lTw8xpH-137" value="DER" style="text;html=1;align=center;verticalAlign=middle;resizable=0;points=[];autosize=1;strokeColor=none;fillColor=none;" vertex="1" parent="1">
          <mxGeometry x="1405" y="438" width="50" height="30" as="geometry" />
        </mxCell>
        <mxCell id="_3UpmQAz6hlJ8lTw8xpH-138" value="DFI" style="text;html=1;align=center;verticalAlign=middle;resizable=0;points=[];autosize=1;strokeColor=none;fillColor=none;" vertex="1" parent="1">
          <mxGeometry x="1560" y="328" width="40" height="30" as="geometry" />
        </mxCell>
        <mxCell id="_3UpmQAz6hlJ8lTw8xpH-139" value="IEEE" style="text;html=1;align=center;verticalAlign=middle;resizable=0;points=[];autosize=1;strokeColor=none;fillColor=none;" vertex="1" parent="1">
          <mxGeometry x="1545" y="428" width="50" height="30" as="geometry" />
        </mxCell>
        <mxCell id="_3UpmQAz6hlJ8lTw8xpH-140" value="DMF" style="text;html=1;align=center;verticalAlign=middle;resizable=0;points=[];autosize=1;strokeColor=none;fillColor=none;" vertex="1" parent="1">
          <mxGeometry x="1665" y="398" width="50" height="30" as="geometry" />
        </mxCell>
        <mxCell id="_3UpmQAz6hlJ8lTw8xpH-141" value="IR" style="text;html=1;align=center;verticalAlign=middle;resizable=0;points=[];autosize=1;strokeColor=none;fillColor=none;" vertex="1" parent="1">
          <mxGeometry x="870" y="498" width="40" height="30" as="geometry" />
        </mxCell>
      </root>
    </mxGraphModel>
  </diagram>
</mxfile>
